# xmcd CD database file
#
# Track frame offsets:
#	150
#	12762
#	26152
#	42860
#	57180
#	71265
#	84480
#	98242
#	114920
#	127472
#	140475
#
# Disc length: 2094 seconds
#
# Revision: 0
# Processed by: cddbd v1.5.1PL0 Copyright (c) Steve Scherf et al.
# Submitted via: CDex 1.40Release
#
DISCID=91082c0b
DTITLE=Jon Brennan - Round Trip Ticket
DYEAR=2001
DGENRE=Country
TTITLE0=If You're Gonna Leave
TTITLE1=Ain't Gone Enough
TTITLE2=Truer Love
TTITLE3=Low Down Lonely
TTITLE4=Round Trip Ticket
TTITLE5=Boots Don't Fail Me Now
TTITLE6=Right From The Get Go
TTITLE7=In My Dreams Tonight
TTITLE8=Shoes And Cheese
TTITLE9=Life Ain't Gonna Get the Best of Me
TTITLE10=You Call That A Mountain
EXTD=YEAR: 2001 ID3G: 2
EXTT0=
EXTT1=
EXTT2=
EXTT3=
EXTT4=
EXTT5=
EXTT6=
EXTT7=
EXTT8=
EXTT9=
EXTT10=
PLAYORDER=
